<?xml version="1.0" standalone="no"?>
<!DOCTYPE svg PUBLIC "-//W3C//DTD SVG 20010904//EN"
 "http://www.w3.org/TR/2001/REC-SVG-20010904/DTD/svg10.dtd">
<svg version="1.0" xmlns="http://www.w3.org/2000/svg"
 width="512.000000pt" height="512.000000pt" viewBox="0 0 512.000000 512.000000"
 preserveAspectRatio="xMidYMid meet">

<g transform="translate(0.000000,512.000000) scale(0.100000,-0.100000)"
fill="#000000" stroke="none">
<path d="M2445 4959 c-189 -28 -390 -153 -497 -310 -36 -54 -1767 -3228 -1852
-3397 -52 -104 -72 -168 -86 -274 -18 -147 21 -328 101 -465 19 -32 72 -97
119 -144 71 -72 100 -93 180 -133 183 -89 -24 -81 2155 -81 1809 0 1934 1
1995 18 146 39 290 132 386 247 54 66 128 211 149 295 37 142 26 320 -28 453
-35 87 -1852 3425 -1901 3492 -168 232 -432 341 -721 299z m258 -309 c71 -22
169 -88 210 -142 45 -59 1860 -3401 1884 -3468 73 -210 -28 -445 -236 -548
l-75 -37 -1926 0 -1926 0 -75 37 c-199 99 -299 310 -244 520 16 63 1839 3427
1894 3497 109 137 315 196 494 141z"/>
<path d="M2522 3440 c-18 -4 -45 -18 -59 -31 -48 -45 -53 -72 -53 -295 l0
-206 -45 40 c-67 59 -135 63 -198 11 -42 -35 -62 -86 -52 -137 5 -31 36 -67
183 -215 97 -98 189 -185 204 -193 35 -18 91 -18 126 0 40 21 359 347 371 379
24 63 7 123 -49 170 -59 50 -126 46 -201 -14 l-39 -31 0 209 c0 237 -6 260
-76 300 -41 24 -58 26 -112 13z"/>
<path d="M1502 2086 c-55 -18 -114 -59 -145 -100 -42 -55 -497 -882 -503 -914
-10 -49 20 -117 64 -147 l37 -25 1606 0 1606 0 34 23 c67 44 86 124 48 200
-52 103 -445 816 -470 853 -36 53 -107 100 -173 115 -30 6 -100 10 -166 7
-100 -3 -122 -7 -166 -30 -72 -38 -118 -90 -154 -176 -99 -236 -279 -367 -530
-388 -252 -20 -503 148 -596 399 -24 67 -92 139 -156 168 -44 19 -73 24 -173
26 -82 2 -134 -2 -163 -11z"/>
</g>
</svg>
